<?xml version="1.0" encoding="UTF-8"?>
<svg version="1.1" xmlns="http://www.w3.org/2000/svg" width="500" height="500">
<path d="M0 0 C0.75023437 0.11472656 1.50046875 0.22945313 2.2734375 0.34765625 C3.02882813 0.43917969 3.78421875 0.53070313 4.5625 0.625 C7.47919117 1.72285567 8.13636152 2.65131333 9.6484375 5.41015625 C10.08524524 8.5570927 10.04152019 11.68276917 10.01953125 14.85546875 C10.03692635 16.7565121 10.05451058 18.65755373 10.07226562 20.55859375 C10.08229631 23.54039886 10.08594502 26.52208504 10.08422852 29.50390625 C10.08782938 32.39228049 10.11529757 35.27975632 10.14453125 38.16796875 C10.13634872 39.04438019 10.1281662 39.92079163 10.11973572 40.82376099 C10.2202902 49.31281958 12.8357502 56.87317233 18.2734375 63.47265625 C18.86382812 64.20613281 19.45421875 64.93960938 20.0625 65.6953125 C21.5532782 67.5096632 21.5532782 67.5096632 23.6484375 68.41015625 C23.6484375 69.07015625 23.6484375 69.73015625 23.6484375 70.41015625 C24.73125 70.84134766 24.73125 70.84134766 25.8359375 71.28125 C27.61044513 71.99351765 29.38177472 72.71380369 31.1484375 73.4453125 C32.3859375 73.95384766 32.3859375 73.95384766 33.6484375 74.47265625 C34.8859375 74.98505859 34.8859375 74.98505859 36.1484375 75.5078125 C40.35795404 77.02718488 44.30074039 77.53521476 48.76198769 77.54158401 C49.77534396 77.54542516 50.78870023 77.5492663 51.83276427 77.55322385 C52.93907175 77.55235737 54.04537923 77.55149088 55.18521118 77.55059814 C56.36595227 77.55356927 57.54669335 77.55654039 58.76321447 77.55960155 C62.0371458 77.56677349 65.31104512 77.56946022 68.58498311 77.57019901 C72.11752359 77.57205241 75.65005275 77.57960124 79.18258667 77.58633423 C86.90592179 77.59990715 94.6292517 77.6059408 102.35259676 77.61034489 C107.17749294 77.61310937 112.00238712 77.61734713 116.82728195 77.62184906 C130.19254493 77.63404094 143.55780631 77.64434004 156.92307472 77.64772415 C157.7782392 77.64794372 158.63340367 77.64816328 159.51448222 77.6483895 C160.80025877 77.64871692 160.80025877 77.64871692 162.1120106 77.64905095 C163.84892503 77.64949441 165.58583947 77.64994098 167.32275391 77.65039062 C168.61510195 77.65072277 168.61510195 77.65072277 169.93355803 77.65106162 C183.88706371 77.65500777 197.84051711 77.67245653 211.79400261 77.69575015 C226.1284234 77.719486 240.46281798 77.73192704 254.79725873 77.73309207 C262.84200665 77.73400764 270.88668645 77.73972998 278.93141556 77.75791168 C285.78321133 77.77334292 292.63491794 77.77841539 299.48672779 77.77017358 C302.9797521 77.76627758 306.47259704 77.76714487 309.96559906 77.78123093 C313.76047347 77.79395159 317.55489049 77.78807227 321.34976196 77.77764893 C322.44268511 77.78570533 323.53560827 77.79376173 324.6616503 77.80206227 C334.72975731 77.73758503 343.08411763 75.69452383 351.6484375 70.41015625 C352.3084375 70.41015625 352.9684375 70.41015625 353.6484375 70.41015625 C353.6484375 69.75015625 353.6484375 69.09015625 353.6484375 68.41015625 C355.2921189 66.72081703 356.9627251 65.05755701 358.6484375 63.41015625 C365.39759947 56.25195416 367.24009483 47.7511894 367.08203125 38.203125 C367.09162612 36.29882726 367.10139682 34.39453039 367.11132812 32.49023438 C367.10269895 29.52993453 367.08573075 26.56984905 367.0637207 23.60961914 C367.04921616 20.72369151 367.06442606 17.83900799 367.08203125 14.953125 C367.05730995 13.62803169 367.05730995 13.62803169 367.03208923 12.27616882 C367.0680406 7.85329011 367.21545497 5.98158003 369.96508789 2.3527832 C372.6484375 0.41015625 372.6484375 0.41015625 376.1484375 -0.21484375 C380.67847136 0.59409087 381.87933974 1.75337402 384.6484375 5.41015625 C385.36813133 8.63311845 385.3260557 11.77493636 385.27734375 15.06640625 C385.27975571 16.00512573 385.28216766 16.94384521 385.28465271 17.91101074 C385.28367446 19.89807352 385.2702861 21.88516362 385.24536133 23.87207031 C385.21136168 26.87272021 385.22462653 29.87037 385.24414062 32.87109375 C385.23346036 47.32006045 383.50872896 58.94321856 375.6484375 71.41015625 C374.9884375 71.41015625 374.3284375 71.41015625 373.6484375 71.41015625 C373.6484375 72.40015625 373.6484375 73.39015625 373.6484375 74.41015625 C372.9884375 74.41015625 372.3284375 74.41015625 371.6484375 74.41015625 C371.3390625 75.02890625 371.0296875 75.64765625 370.7109375 76.28515625 C370.0234375 77.66015625 369.3359375 79.03515625 368.6484375 80.41015625 C367.9884375 80.41015625 367.3284375 80.41015625 366.6484375 80.41015625 C366.6484375 81.07015625 366.6484375 81.73015625 366.6484375 82.41015625 C364.63671875 83.8125 364.63671875 83.8125 361.9609375 85.34765625 C361.09082031 85.85167969 360.22070312 86.35570312 359.32421875 86.875 C358.44121094 87.38160156 357.55820312 87.88820313 356.6484375 88.41015625 C355.52990969 89.13347515 355.52990969 89.13347515 354.38878536 89.87140656 C340.86034984 97.46784214 324.00983533 95.98968144 309.07109129 95.93305492 C305.49297173 95.92390709 301.91492666 95.93802169 298.33682251 95.94897461 C291.3488366 95.96666132 284.36102358 95.96296432 277.37303119 95.95132405 C271.68893563 95.94225162 266.00488817 95.94108209 260.32078743 95.94541931 C259.50855455 95.94603224 258.69632166 95.94664518 257.85947566 95.94727668 C256.20891116 95.94855572 254.55834668 95.94985257 252.9077822 95.95116705 C237.46971656 95.9625438 222.0317463 95.94950455 206.5936963 95.92796558 C193.37532341 95.91009385 180.15709107 95.91320496 166.9387207 95.93164062 C151.55037742 95.95309302 136.16211748 95.96144898 120.77376133 95.94919157 C119.1299315 95.94791751 117.48610166 95.94666002 115.8422718 95.94541931 C115.03368976 95.94480221 114.22510772 95.94418511 113.39202319 95.94354931 C107.72070874 95.94010974 102.04944759 95.94589446 96.3781414 95.95533752 C89.45824654 95.96660747 82.53853295 95.96341317 75.61865859 95.94221455 C72.09464909 95.93177128 68.57094075 95.92746577 65.04693413 95.94081116 C43.60653543 96.00240621 28.71831685 94.45674249 10.6484375 82.41015625 C10.6484375 81.75015625 10.6484375 81.09015625 10.6484375 80.41015625 C9.9884375 80.41015625 9.3284375 80.41015625 8.6484375 80.41015625 C7.359375 78.94921875 7.359375 78.94921875 6.0234375 77.03515625 C5.57742187 76.40867187 5.13140625 75.7821875 4.671875 75.13671875 C3.6484375 73.41015625 3.6484375 73.41015625 3.6484375 71.41015625 C2.9884375 71.41015625 2.3284375 71.41015625 1.6484375 71.41015625 C-6.82021669 57.97831539 -8.02880343 45.40933771 -7.92797852 29.90527344 C-7.91395761 26.88758205 -7.94847583 23.87290695 -7.98632812 20.85546875 C-7.98727813 18.9257805 -7.9854269 16.99608837 -7.98046875 15.06640625 C-7.99372696 14.1705481 -8.00698517 13.27468994 -8.02064514 12.35168457 C-7.95346654 7.85684491 -7.80148587 5.98900959 -4.95922852 2.33227539 C-2.3515625 0.41015625 -2.3515625 0.41015625 0 0 Z " fill="#121212" transform="translate(61.3515625,311.58984375)"/>
<path d="M0 0 C2.64754772 1.52426529 2.64754772 1.52426529 5 4 C5.50338662 6.89755139 5.67938493 9.21371223 5.63923645 12.11175537 C5.64759213 12.93596709 5.6559478 13.76017882 5.66455668 14.60936666 C5.68652893 17.3750971 5.67286703 20.1395051 5.65942383 22.90527344 C5.66787438 24.88614411 5.67851725 26.86700647 5.69119263 28.84785461 C5.71939959 34.22979285 5.71685658 39.61133336 5.70889878 44.99332333 C5.70577916 50.61615347 5.73079213 56.23885573 5.75285339 61.8616333 C5.79034596 72.5111042 5.80244448 83.16044739 5.8054778 93.80997777 C5.81016297 105.93323895 5.84306891 118.05637174 5.87837565 130.1795764 C5.95037562 155.11970203 5.98683739 180.05977884 6 205 C6.66 205 7.32 205 8 205 C8 204.34 8 203.68 8 203 C10.375 200.375 10.375 200.375 13 198 C13.66 198 14.32 198 15 198 C15 197.34 15 196.68 15 196 C16.875 193.875 16.875 193.875 19 192 C19.66 192 20.32 192 21 192 C21 191.34 21 190.68 21 190 C22.71484375 188.34375 22.71484375 188.34375 24.9375 186.5 C27.92045179 184.11073001 27.92045179 184.11073001 30 181 C30.66 181 31.32 181 32 181 C32 180.34 32 179.68 32 179 C33.57421875 177.484375 33.57421875 177.484375 35.6875 175.75 C38.35349133 173.49924272 40.71010091 171.29950455 42.875 168.5625 C43.57625 167.716875 44.2775 166.87125 45 166 C45.66 166 46.32 166 47 166 C47 165.34 47 164.68 47 164 C48.71484375 162.34375 48.71484375 162.34375 50.9375 160.5 C53.92045179 158.11073001 53.92045179 158.11073001 56 155 C56.66 155 57.32 155 58 155 C58 154.34 58 153.68 58 153 C58.66 153 59.32 153 60 153 C60 152.34 60 151.68 60 151 C61.609375 149.37890625 61.609375 149.37890625 63.75 147.5625 C64.44609375 146.96566406 65.1421875 146.36882812 65.859375 145.75390625 C66.56578125 145.17511719 67.2721875 144.59632813 68 144 C68.6496875 143.42507812 69.299375 142.85015625 69.96875 142.2578125 C72.53621556 140.66795883 73.80687526 140.83640629 76.75 141.3125 C77.54921875 141.43238281 78.3484375 141.55226562 79.171875 141.67578125 C79.77515625 141.78277344 80.3784375 141.88976562 81 142 C81 142.66 81 143.32 81 144 C81.66 144 82.32 144 83 144 C83.76348279 147.55520772 83.86686614 150.45287747 83 154 C79.77764825 158.21710074 76.16133145 161.71342291 72 165 C71.34 165 70.68 165 70 165 C70 165.66 70 166.32 70 167 C69.34 167 68.68 167 68 167 C67.7834375 167.54140625 67.566875 168.0828125 67.34375 168.640625 C65.53500003 171.81645344 63.08276201 174.20728081 60.5 176.75 C60.00113281 177.25660156 59.50226563 177.76320313 58.98828125 178.28515625 C55.25341139 182 55.25341139 182 53 182 C52.66935547 182.82177734 52.66935547 182.82177734 52.33203125 183.66015625 C50.58129871 186.73548994 48.21052934 189.00158721 45.6875 191.4375 C45.21376953 191.90220703 44.74003906 192.36691406 44.25195312 192.84570312 C42.83733614 194.23322758 41.41868488 195.61663507 40 197 C38.33077121 198.66410059 36.66401907 200.33068993 35 202 C25 212 25 212 22.54296875 214.44921875 C20.74288598 216.25483173 18.95465951 218.06834562 17.17578125 219.89453125 C16.2213791 220.86721196 15.26695188 221.83986808 14.3125 222.8125 C13.82716797 223.31458984 13.34183594 223.81667969 12.84179688 224.33398438 C11.59875394 225.59417273 10.30300108 226.80191044 9 228 C8.34 228 7.68 228 7 228 C7 228.66 7 229.32 7 230 C6.34 230 5.68 230 5 230 C4.731875 230.61875 4.46375 231.2375 4.1875 231.875 C3 234 3 234 0 236 C-3.22745901 236.58681073 -5.16556242 236.54623825 -7.9453125 234.7265625 C-9.7568076 233.2230949 -11.44861083 231.77170479 -13 230 C-13 229.34 -13 228.68 -13 228 C-13.82177734 227.66935547 -13.82177734 227.66935547 -14.66015625 227.33203125 C-17.73548994 225.58129871 -20.00158721 223.21052934 -22.4375 220.6875 C-23.13456055 219.9769043 -23.13456055 219.9769043 -23.84570312 219.25195312 C-25.23322758 217.83733614 -26.61663507 216.41868488 -28 215 C-29.66410059 213.33077121 -31.33068993 211.66401907 -33 210 C-43 200 -43 200 -45.44921875 197.54296875 C-47.25483173 195.74288598 -49.06834562 193.95465951 -50.89453125 192.17578125 C-51.86721196 191.2213791 -52.83986808 190.26695188 -53.8125 189.3125 C-54.31458984 188.82716797 -54.81667969 188.34183594 -55.33398438 187.84179688 C-56.59417273 186.59875394 -57.80191044 185.30300108 -59 184 C-59 183.34 -59 182.68 -59 182 C-59.54140625 181.7834375 -60.0828125 181.566875 -60.640625 181.34375 C-63.81645344 179.53500003 -66.20728081 177.08276201 -68.75 174.5 C-69.50990234 173.75169922 -69.50990234 173.75169922 -70.28515625 172.98828125 C-74 169.25341139 -74 169.25341139 -74 167 C-74.66 167 -75.32 167 -76 167 C-76 166.34 -76 165.68 -76 165 C-76.84498047 164.63648438 -76.84498047 164.63648438 -77.70703125 164.265625 C-80.45733723 162.74756855 -82.43541268 160.93880553 -84.6875 158.75 C-85.86892578 157.62851562 -85.86892578 157.62851562 -87.07421875 156.484375 C-89.32875994 153.57587967 -89.74098476 151.63617546 -90 148 C-89.5625 145.625 -89.5625 145.625 -89 144 C-88.34 144 -87.68 144 -87 144 C-87 143.34 -87 142.68 -87 142 C-83.89689507 141.04058591 -81.24064913 140.63465595 -78 141 C-74.22243815 143.19965911 -71.00189431 145.82262961 -68 149 C-68 149.66 -68 150.32 -68 151 C-67.34 151 -66.68 151 -66 151 C-66 151.66 -66 152.32 -66 153 C-65.34 153 -64.68 153 -64 153 C-64 153.66 -64 154.32 -64 155 C-63.34 155 -62.68 155 -62 155 C-60.34375 156.71484375 -60.34375 156.71484375 -58.5 158.9375 C-56.11073001 161.92045179 -56.11073001 161.92045179 -53 164 C-53 164.66 -53 165.32 -53 166 C-52.34 166 -51.68 166 -51 166 C-51 166.66 -51 167.32 -51 168 C-50.34 168 -49.68 168 -49 168 C-49 168.66 -49 169.32 -49 170 C-48.34 170 -47.68 170 -47 170 C-45.375 171.375 -45.375 171.375 -44 173 C-44 173.66 -44 174.32 -44 175 C-43.34 175 -42.68 175 -42 175 C-40.64613064 176.65002828 -39.31321858 178.3174387 -38 180 C-37.34 180.33 -36.68 180.66 -36 181 C-36 181.66 -36 182.32 -36 183 C-35.34 183 -34.68 183 -34 183 C-31.375 185.375 -31.375 185.375 -29 188 C-29 188.66 -29 189.32 -29 190 C-28.34 190 -27.68 190 -27 190 C-25.64613064 191.65002828 -24.31321858 193.3174387 -23 195 C-22.34 195.33 -21.68 195.66 -21 196 C-21 196.66 -21 197.32 -21 198 C-20.34 198 -19.68 198 -19 198 C-17.375 199.375 -17.375 199.375 -16 201 C-16 201.66 -16 202.32 -16 203 C-15.34 203 -14.68 203 -14 203 C-14 203.66 -14 204.32 -14 205 C-13.34 205 -12.68 205 -12 205 C-12.00092179 204.06130821 -12.00184359 203.12261642 -12.00279331 202.15547943 C-12.0250453 179.25898218 -12.04145058 156.36248633 -12.05181217 133.46598053 C-12.05695682 122.3931693 -12.06396444 111.32036523 -12.07543945 100.24755859 C-12.08544243 90.59054322 -12.09186673 80.93353304 -12.09408849 71.27651262 C-12.0953861 66.16864408 -12.09841135 61.06079039 -12.10573006 55.95292664 C-12.11257906 51.13327561 -12.11459912 46.31364538 -12.11310768 41.49398994 C-12.11338005 39.73657175 -12.11533201 37.97915277 -12.11920547 36.22173882 C-12.1305295 30.81308183 -12.08998492 25.40788257 -12 20 C-11.99240182 19.24293447 -11.98480363 18.48586895 -11.9769752 17.70586205 C-11.94653495 15.49396043 -11.88133987 13.28582823 -11.80540466 11.07507324 C-11.77162436 9.80610954 -11.73784407 8.53714584 -11.70304012 7.2297287 C-11 4 -11 4 -8.63716221 1.58905792 C-5.38198919 -0.37239081 -3.74123726 -0.62353954 0 0 Z " fill="#0D0D0E" transform="translate(253,93)"/>
<path d="M0 0 C0.66 0 1.32 0 2 0 C0.125 3.875 0.125 3.875 -1 5 C-1.12185143 6.34983748 -1.17766831 7.70574701 -1.20532227 9.06079102 C-1.2352401 10.35201622 -1.2352401 10.35201622 -1.26576233 11.66932678 C-1.29083107 13.07244362 -1.29083107 13.07244362 -1.31640625 14.50390625 C-1.33718735 15.45692123 -1.35796844 16.40993622 -1.37937927 17.39183044 C-1.44498177 20.4486441 -1.50380918 23.50554656 -1.5625 26.5625 C-1.60567506 28.62956663 -1.64928901 30.69662414 -1.69335938 32.76367188 C-1.80067401 37.84235595 -1.90191091 42.9211297 -2 48 C-2.33 48 -2.66 48 -3 48 C-3.07416092 41.80699281 -3.12860756 35.61424416 -3.16479492 29.42089844 C-3.17988069 27.3140818 -3.20035193 25.20729656 -3.22631836 23.10058594 C-3.26271053 20.0721868 -3.2797285 17.04420291 -3.29296875 14.015625 C-3.30845261 13.07382385 -3.32393646 12.13202271 -3.33988953 11.16168213 C-3.34011612 10.28107117 -3.34034271 9.40046021 -3.34057617 8.49316406 C-3.34723801 7.72039124 -3.35389984 6.94761841 -3.36076355 6.15142822 C-2.90163624 3.4134037 -1.87884668 2.01411878 0 0 Z " fill="#303031" transform="translate(57,313)"/>
</svg>
